# MagicaVoxel @ Ephtracy

# group
o 

# material
mtllib Number2.vox.mtl
usemtl palette

# normals
vn -1 0 0
vn 1 0 0
vn 0 0 1
vn 0 0 -1
vn 0 -1 0
vn 0 1 0

# texcoords
vt 0.00585938 0.5
vt 0.193359 0.5
vt 0.505859 0.5
vt 0.849609 0.5
vt 0.857422 0.5
vt 0.970703 0.5
vt 0.978516 0.5
vt 0.982422 0.5
vt 0.986328 0.5
vt 0.994141 0.5

# verts
v -1.9 2.2 0.5
v -1.9 2.2 -0.5
v -1.9 2.6 0.5
v -1.9 2.6 -0.5
v -1 3.7 0.9
v -1 3.7 0.8
v -1 3.7 -0.5
v -1 3.8 0.9
v -1 3.8 0.8
v -1 4.2 0.9
v -1 4.2 -0.5
v -1 4.3 0.9
v -1 4.3 -0.5
v -0.9 1.8 0.5
v -0.9 1.8 -0.5
v -0.9 2.2 0.5
v -0.9 2.2 -0.5
v -0.9 2.6 0.7
v -0.9 2.6 0.6
v -0.9 2.6 0.5
v -0.9 2.6 0.2
v -0.9 2.6 -0.5
v -0.9 2.6 -0.6
v -0.9 2.6 -0.7
v -0.9 2.7 0.7
v -0.9 2.7 0.6
v -0.9 3 0.4
v -0.9 3 0.2
v -0.9 3.7 0.7
v -0.9 3.7 0.4
v -0.9 3.7 -0.5
v -0.9 3.7 -0.6
v -0.9 3.7 -0.7
v -0.8 1.3 0.5
v -0.8 1.3 -0.5
v -0.8 1.8 0.5
v -0.8 1.8 -0.5
v -0.7 0 0.4
v -0.7 0 -0.4
v -0.7 1.3 0.4
v -0.7 1.3 -0.4
v -0.4 2.1 0.7
v -0.4 2.1 0.5
v -0.4 2.6 0.7
v -0.4 2.6 0.6
v -0.4 2.6 0.5
v -0.3 3 1
v -0.3 3 0.9
v -0.3 3 0.7
v -0.3 3.2 1.1
v -0.3 3.2 1
v -0.3 3.2 0.9
v -0.3 3.3 0.7
v -0.3 3.4 1.1
v -0.3 3.4 1
v -0.3 3.7 1
v -0.3 3.7 0.9
v -0.3 3.7 0.8
v -0.3 3.7 0.7
v -0.1 3.4 1.2
v -0.1 3.4 1.1
v -0.1 3.4 1
v -0.1 3.6 1.2
v -0.1 3.6 1
v 0.1 0 0.4
v 0.1 0 -0.4
v 0.1 0.9 0.4
v 0.1 0.9 -0.4
v 0.2 2.1 0.7
v 0.2 2.1 0.5
v 0.2 2.3 0.7
v 0.2 2.3 0.6
v 0.2 2.3 0.5
v 0.2 2.5 0.7
v 0.2 2.5 0.6
v 0.2 2.5 0.5
v 0.2 2.6 0.7
v 0.2 2.6 0.6
v 0.2 2.6 0.5
v 0.3 3.9 0.8
v 0.3 3.9 0.6
v 0.3 3.9 -0.5
v 0.3 4.2 0.8
v 0.3 4.2 -0.5
v 0.3 4.3 0.8
v 0.3 4.3 -0.5
v -0.3 3.9 0.9
v -0.3 3.9 0.6
v -0.3 3.9 -0.5
v -0.3 4.2 0.9
v -0.3 4.2 -0.5
v -0.3 4.3 0.9
v -0.3 4.3 -0.5
v -0.2 2.1 0.7
v -0.2 2.1 0.5
v -0.2 2.3 0.7
v -0.2 2.3 0.6
v -0.2 2.3 0.5
v -0.2 2.5 0.7
v -0.2 2.5 0.6
v -0.2 2.5 0.5
v -0.2 2.6 0.7
v -0.2 2.6 0.6
v -0.2 2.6 0.5
v -0.1 0 0.4
v -0.1 0 -0.4
v -0.1 0.9 0.4
v -0.1 0.9 -0.4
v 0.1 3.4 1.2
v 0.1 3.4 1.1
v 0.1 3.4 1
v 0.1 3.6 1.2
v 0.1 3.6 1
v 0.3 3 1
v 0.3 3 0.9
v 0.3 3 0.7
v 0.3 3.2 1.1
v 0.3 3.2 1
v 0.3 3.2 0.9
v 0.3 3.3 0.7
v 0.3 3.4 1.1
v 0.3 3.4 1
v 0.3 3.7 1
v 0.3 3.7 0.9
v 0.3 3.7 0.8
v 0.3 3.7 0.7
v 0.3 3.8 0.9
v 0.3 3.8 0.8
v 0.3 3.9 0.9
v 0.3 3.9 0.8
v 0.4 2.1 0.7
v 0.4 2.1 0.5
v 0.4 2.6 0.7
v 0.4 2.6 0.6
v 0.4 2.6 0.5
v 0.7 0 0.4
v 0.7 0 -0.4
v 0.7 1.3 0.4
v 0.7 1.3 -0.4
v 0.8 1.3 0.5
v 0.8 1.3 -0.5
v 0.8 1.8 0.5
v 0.8 1.8 -0.2
v 0.8 2.6 -0.2
v 0.8 2.6 -0.5
v 0.9 1.8 0.5
v 0.9 1.8 -0.2
v 0.9 2.2 0.5
v 0.9 2.2 -0.2
v 0.9 2.6 0.7
v 0.9 2.6 0.6
v 0.9 2.6 0.5
v 0.9 2.6 0.2
v 0.9 2.6 -0.2
v 0.9 2.6 -0.5
v 0.9 2.6 -0.6
v 0.9 2.6 -0.7
v 0.9 2.7 0.7
v 0.9 2.7 0.6
v 0.9 3 0.4
v 0.9 3 0.2
v 0.9 3.7 0.7
v 0.9 3.7 0.4
v 0.9 3.7 -0.5
v 0.9 3.7 -0.6
v 0.9 3.7 -0.7
v 1 3.7 0.9
v 1 3.7 0.8
v 1 3.7 -0.5
v 1 3.8 0.9
v 1 3.8 0.8
v 1 4.2 0.8
v 1 4.2 -0.5
v 1 4.3 0.8
v 1 4.3 -0.5
v 1.9 2.2 0.5
v 1.9 2.2 -0.2
v 1.9 2.6 0.5
v 1.9 2.6 -0.2
v -0.1 3.4 1.2
v -0.1 3.6 1.2
v 0.1 3.4 1.2
v 0.1 3.6 1.2
v -0.3 3.2 1.1
v -0.3 3.4 1.1
v -0.1 3.4 1.1
v 0.1 3.4 1.1
v 0.3 3.2 1.1
v 0.3 3.4 1.1
v -0.3 3 1
v -0.3 3.2 1
v -0.3 3.4 1
v -0.3 3.7 1
v -0.2 3.1 1
v -0.2 3.2 1
v -0.1 3.1 1
v -0.1 3.2 1
v -0.1 3.4 1
v -0.1 3.6 1
v 0.1 3.1 1
v 0.1 3.2 1
v 0.1 3.4 1
v 0.1 3.6 1
v 0.2 3.1 1
v 0.2 3.2 1
v 0.3 3 1
v 0.3 3.2 1
v 0.3 3.4 1
v 0.3 3.7 1
v -1 3.7 0.9
v -1 3.8 0.9
v -1 4.2 0.9
v -1 4.3 0.9
v -0.8 3.8 0.9
v -0.8 4.1 0.9
v -0.5 3.8 0.9
v -0.5 4.1 0.9
v -0.3 3.7 0.9
v -0.3 3.8 0.9
v -0.3 3.9 0.9
v -0.3 4.2 0.9
v -0.3 4.3 0.9
v 0.3 3.7 0.9
v 0.3 3.8 0.9
v 0.3 3.9 0.9
v 1 3.7 0.9
v 1 3.8 0.9
v 0.3 3.8 0.8
v 0.3 3.9 0.8
v 0.3 4.2 0.8
v 0.3 4.3 0.8
v 0.5 3.8 0.8
v 0.5 4.1 0.8
v 0.8 3.8 0.8
v 0.8 4.1 0.8
v 1 3.8 0.8
v 1 4.2 0.8
v 1 4.3 0.8
v -0.9 2.6 0.7
v -0.9 2.7 0.7
v -0.9 3.7 0.7
v -0.7 3.3 0.7
v -0.7 3.7 0.7
v -0.5 3.3 0.7
v -0.5 3.7 0.7
v -0.4 2.1 0.7
v -0.4 2.6 0.7
v -0.3 2.6 0.7
v -0.3 2.7 0.7
v -0.3 3 0.7
v -0.3 3.3 0.7
v -0.3 3.7 0.7
v -0.2 2.1 0.7
v -0.2 2.3 0.7
v -0.2 2.5 0.7
v -0.2 2.6 0.7
v -0.1 2.3 0.7
v -0.1 2.5 0.7
v 0.1 2.3 0.7
v 0.1 2.5 0.7
v 0.2 2.1 0.7
v 0.2 2.3 0.7
v 0.2 2.5 0.7
v 0.2 2.6 0.7
v 0.3 2.6 0.7
v 0.3 2.7 0.7
v 0.3 3 0.7
v 0.3 3.3 0.7
v 0.3 3.7 0.7
v 0.4 2.1 0.7
v 0.4 2.6 0.7
v 0.5 3.3 0.7
v 0.5 3.7 0.7
v 0.7 3.3 0.7
v 0.7 3.7 0.7
v 0.9 2.6 0.7
v 0.9 2.7 0.7
v 0.9 3.7 0.7
v -1.9 2.2 0.5
v -1.9 2.6 0.5
v -1.5 2.2 0.5
v -1.5 2.6 0.5
v -0.9 1.8 0.5
v -0.9 2.2 0.5
v -0.9 2.6 0.5
v -0.8 1.3 0.5
v -0.8 1.8 0.5
v -0.4 2.1 0.5
v -0.4 2.6 0.5
v -0.2 2.1 0.5
v -0.2 2.3 0.5
v -0.2 2.5 0.5
v -0.2 2.6 0.5
v 0.2 2.1 0.5
v 0.2 2.3 0.5
v 0.2 2.5 0.5
v 0.2 2.6 0.5
v 0.4 2.1 0.5
v 0.4 2.6 0.5
v 0.8 1.3 0.5
v 0.8 1.8 0.5
v 0.9 1.8 0.5
v 0.9 2.2 0.5
v 0.9 2.6 0.5
v 1.5 2.2 0.5
v 1.5 2.6 0.5
v 1.9 2.2 0.5
v 1.9 2.6 0.5
v -0.7 0 0.4
v -0.7 1.3 0.4
v -0.1 0 0.4
v -0.1 0.9 0.4
v 0.1 0 0.4
v 0.1 0.9 0.4
v 0.7 0 0.4
v 0.7 1.3 0.4
v 0.8 1.8 -0.2
v 0.8 2.6 -0.2
v 0.9 1.8 -0.2
v 0.9 2.2 -0.2
v 0.9 2.6 -0.2
v 1.5 2.2 -0.2
v 1.5 2.6 -0.2
v 1.9 2.2 -0.2
v 1.9 2.6 -0.2
v -0.7 0 -0.4
v -0.7 1.3 -0.4
v -0.1 0 -0.4
v -0.1 0.9 -0.4
v 0.1 0 -0.4
v 0.1 0.9 -0.4
v 0.7 0 -0.4
v 0.7 1.3 -0.4
v -1.9 2.2 -0.5
v -1.9 2.6 -0.5
v -1.5 2.2 -0.5
v -1.5 2.6 -0.5
v -1 3.7 -0.5
v -1 4.2 -0.5
v -1 4.3 -0.5
v -0.9 1.8 -0.5
v -0.9 2.2 -0.5
v -0.9 2.6 -0.5
v -0.9 3.7 -0.5
v -0.8 1.3 -0.5
v -0.8 1.8 -0.5
v -0.8 3.7 -0.5
v -0.6 3.7 -0.5
v -0.3 3.9 -0.5
v -0.3 4.2 -0.5
v -0.3 4.3 -0.5
v 0.3 3.9 -0.5
v 0.3 4.2 -0.5
v 0.3 4.3 -0.5
v 0.8 1.3 -0.5
v 0.8 2.6 -0.5
v 0.9 3.7 -0.5
v 1 3.7 -0.5
v 1 4.2 -0.5
v 1 4.3 -0.5
v -0.9 2.6 -0.7
v -0.9 3.7 -0.7
v 0.9 2.6 -0.7
v 0.9 3.7 -0.7
v -0.7 0 0.4
v -0.1 0 0.4
v 0.1 0 0.4
v 0.7 0 0.4
v -0.7 0 -0.4
v -0.1 0 -0.4
v 0.1 0 -0.4
v 0.7 0 -0.4
v -0.1 0.9 0.4
v 0.1 0.9 0.4
v -0.1 0.9 -0.4
v 0.1 0.9 -0.4
v -0.8 1.3 0.5
v 0.8 1.3 0.5
v -0.7 1.3 0.4
v 0.7 1.3 0.4
v -0.7 1.3 -0.4
v 0.7 1.3 -0.4
v -0.8 1.3 -0.5
v 0.8 1.3 -0.5
v -0.9 1.8 0.5
v -0.8 1.8 0.5
v 0.8 1.8 0.5
v 0.9 1.8 0.5
v 0.8 1.8 -0.2
v 0.9 1.8 -0.2
v -0.9 1.8 -0.5
v -0.8 1.8 -0.5
v -0.4 2.1 0.7
v -0.2 2.1 0.7
v 0.2 2.1 0.7
v 0.4 2.1 0.7
v -0.4 2.1 0.5
v -0.2 2.1 0.5
v 0.2 2.1 0.5
v 0.4 2.1 0.5
v -1.9 2.2 0.5
v -1.5 2.2 0.5
v -0.9 2.2 0.5
v 0.9 2.2 0.5
v 1.5 2.2 0.5
v 1.9 2.2 0.5
v 0.9 2.2 -0.2
v 1.5 2.2 -0.2
v 1.9 2.2 -0.2
v -1.9 2.2 -0.5
v -1.5 2.2 -0.5
v -0.9 2.2 -0.5
v -0.2 2.3 0.7
v -0.1 2.3 0.7
v 0.1 2.3 0.7
v 0.2 2.3 0.7
v -0.2 2.3 0.6
v -0.1 2.3 0.6
v 0.1 2.3 0.6
v 0.2 2.3 0.6
v -0.2 2.3 0.5
v 0.2 2.3 0.5
v -0.9 2.6 0.7
v -0.4 2.6 0.7
v -0.2 2.6 0.7
v 0.2 2.6 0.7
v 0.4 2.6 0.7
v 0.9 2.6 0.7
v -0.9 2.6 0.6
v -0.4 2.6 0.6
v -0.2 2.6 0.6
v 0.2 2.6 0.6
v 0.4 2.6 0.6
v 0.9 2.6 0.6
v -0.9 2.6 0.5
v -0.4 2.6 0.5
v -0.2 2.6 0.5
v 0.2 2.6 0.5
v 0.4 2.6 0.5
v 0.9 2.6 0.5
v 0.8 2.6 -0.2
v 0.9 2.6 -0.2
v -0.9 2.6 -0.5
v 0.8 2.6 -0.5
v 0.9 2.6 -0.5
v -0.9 2.6 -0.6
v 0.9 2.6 -0.6
v -0.9 2.6 -0.7
v 0.9 2.6 -0.7
v -0.3 3 1
v 0.3 3 1
v -0.3 3 0.9
v 0.3 3 0.9
v -0.3 3 0.7
v 0.3 3 0.7
v -0.3 3.2 1.1
v 0.3 3.2 1.1
v -0.3 3.2 1
v -0.2 3.2 1
v -0.1 3.2 1
v 0.1 3.2 1
v 0.2 3.2 1
v 0.3 3.2 1
v -0.1 3.4 1.2
v 0.1 3.4 1.2
v -0.1 3.4 1.1
v 0.1 3.4 1.1
v -1 3.7 0.9
v -0.3 3.7 0.9
v 0.3 3.7 0.9
v 1 3.7 0.9
v -1 3.7 0.8
v -0.3 3.7 0.8
v 0.3 3.7 0.8
v 1 3.7 0.8
v -0.9 3.7 0.7
v -0.7 3.7 0.7
v -0.5 3.7 0.7
v -0.3 3.7 0.7
v 0.3 3.7 0.7
v 0.5 3.7 0.7
v 0.7 3.7 0.7
v 0.9 3.7 0.7
v -0.9 3.7 0.4
v 0.9 3.7 0.4
v -1 3.7 -0.5
v -0.9 3.7 -0.5
v 0.9 3.7 -0.5
v 1 3.7 -0.5
v -0.2 2.5 0.7
v -0.1 2.5 0.7
v 0.1 2.5 0.7
v 0.2 2.5 0.7
v -0.2 2.5 0.6
v -0.1 2.5 0.6
v 0.1 2.5 0.6
v 0.2 2.5 0.6
v -0.2 2.5 0.5
v 0.2 2.5 0.5
v -1.9 2.6 0.5
v -1.5 2.6 0.5
v -0.9 2.6 0.5
v 0.9 2.6 0.5
v 1.5 2.6 0.5
v 1.9 2.6 0.5
v -0.9 2.6 0.2
v 0.9 2.6 0.2
v 0.9 2.6 -0.2
v 1.5 2.6 -0.2
v 1.9 2.6 -0.2
v -1.9 2.6 -0.5
v -1.5 2.6 -0.5
v -0.9 2.6 -0.5
v -0.3 3.4 1.1
v -0.1 3.4 1.1
v 0.1 3.4 1.1
v 0.3 3.4 1.1
v -0.3 3.4 1
v -0.1 3.4 1
v 0.1 3.4 1
v 0.3 3.4 1
v -0.1 3.6 1.2
v 0.1 3.6 1.2
v -0.1 3.6 1
v 0.1 3.6 1
v -0.3 3.7 1
v 0.3 3.7 1
v -0.3 3.7 0.9
v 0.3 3.7 0.9
v -0.9 3.7 -0.5
v -0.8 3.7 -0.5
v -0.6 3.7 -0.5
v 0.9 3.7 -0.5
v -0.9 3.7 -0.6
v -0.8 3.7 -0.6
v -0.6 3.7 -0.6
v 0.9 3.7 -0.6
v -0.9 3.7 -0.7
v 0.9 3.7 -0.7
v 0.3 3.8 0.9
v 1 3.8 0.9
v 0.3 3.8 0.8
v 0.5 3.8 0.8
v 0.8 3.8 0.8
v 1 3.8 0.8
v -0.3 3.9 0.9
v 0.3 3.9 0.9
v 0.3 3.9 0.8
v -0.3 3.9 0.6
v 0.3 3.9 0.6
v -0.3 3.9 -0.5
v 0.3 3.9 -0.5
v -1 4.3 0.9
v -0.3 4.3 0.9
v 0.3 4.3 0.8
v 1 4.3 0.8
v -1 4.3 -0.5
v -0.3 4.3 -0.5
v 0.3 4.3 -0.5
v 1 4.3 -0.5

# faces
f 3/1/1 2/1/1 1/1/1
f 4/1/1 2/1/1 3/1/1
f 8/10/1 6/10/1 5/10/1
f 9/7/1 7/7/1 6/7/1
f 9/10/1 6/10/1 8/10/1
f 10/7/1 9/7/1 8/7/1
f 11/7/1 7/7/1 9/7/1
f 11/7/1 9/7/1 10/7/1
f 12/8/1 11/8/1 10/8/1
f 13/8/1 11/8/1 12/8/1
f 16/8/1 15/8/1 14/8/1
f 17/8/1 15/8/1 16/8/1
f 25/9/1 19/9/1 18/9/1
f 26/1/1 20/1/1 19/1/1
f 26/9/1 19/9/1 25/9/1
f 26/1/1 21/1/1 20/1/1
f 27/1/1 26/1/1 25/1/1
f 27/1/1 21/1/1 26/1/1
f 28/6/1 22/6/1 21/6/1
f 28/1/1 21/1/1 27/1/1
f 29/1/1 27/1/1 25/1/1
f 30/6/1 28/6/1 27/6/1
f 30/1/1 27/1/1 29/1/1
f 31/6/1 22/6/1 28/6/1
f 31/6/1 28/6/1 30/6/1
f 31/7/1 23/7/1 22/7/1
f 32/8/1 24/8/1 23/8/1
f 32/7/1 23/7/1 31/7/1
f 33/8/1 24/8/1 32/8/1
f 36/8/1 35/8/1 34/8/1
f 37/8/1 35/8/1 36/8/1
f 40/8/1 39/8/1 38/8/1
f 41/8/1 39/8/1 40/8/1
f 44/5/1 43/5/1 42/5/1
f 45/5/1 43/5/1 44/5/1
f 46/5/1 43/5/1 45/5/1
f 51/10/1 48/10/1 47/10/1
f 52/1/1 49/1/1 48/1/1
f 52/10/1 48/10/1 51/10/1
f 53/1/1 51/1/1 50/1/1
f 53/1/1 49/1/1 52/1/1
f 53/1/1 52/1/1 51/1/1
f 54/1/1 53/1/1 50/1/1
f 55/1/1 53/1/1 54/1/1
f 56/1/1 53/1/1 55/1/1
f 57/1/1 53/1/1 56/1/1
f 58/1/1 53/1/1 57/1/1
f 59/1/1 53/1/1 58/1/1
f 63/10/1 61/10/1 60/10/1
f 63/10/1 62/10/1 61/10/1
f 64/10/1 62/10/1 63/10/1
f 67/8/1 66/8/1 65/8/1
f 68/8/1 66/8/1 67/8/1
f 71/5/1 70/5/1 69/5/1
f 72/5/1 70/5/1 71/5/1
f 73/5/1 70/5/1 72/5/1
f 77/5/1 75/5/1 74/5/1
f 77/5/1 76/5/1 75/5/1
f 78/5/1 76/5/1 77/5/1
f 79/5/1 76/5/1 78/5/1
f 83/7/1 81/7/1 80/7/1
f 83/7/1 82/7/1 81/7/1
f 84/7/1 82/7/1 83/7/1
f 85/8/1 84/8/1 83/8/1
f 86/8/1 84/8/1 85/8/1
f 87/7/2 88/7/2 90/7/2
f 88/7/2 89/7/2 90/7/2
f 90/7/2 89/7/2 91/7/2
f 90/8/2 91/8/2 92/8/2
f 92/8/2 91/8/2 93/8/2
f 94/5/2 95/5/2 96/5/2
f 96/5/2 95/5/2 97/5/2
f 97/5/2 95/5/2 98/5/2
f 99/5/2 100/5/2 102/5/2
f 100/5/2 101/5/2 102/5/2
f 102/5/2 101/5/2 103/5/2
f 103/5/2 101/5/2 104/5/2
f 105/8/2 106/8/2 107/8/2
f 107/8/2 106/8/2 108/8/2
f 109/10/2 110/10/2 112/10/2
f 110/10/2 111/10/2 112/10/2
f 112/10/2 111/10/2 113/10/2
f 114/10/2 115/10/2 118/10/2
f 115/1/2 116/1/2 119/1/2
f 118/10/2 115/10/2 119/10/2
f 117/1/2 118/1/2 120/1/2
f 119/1/2 116/1/2 120/1/2
f 118/1/2 119/1/2 120/1/2
f 117/1/2 120/1/2 121/1/2
f 121/1/2 120/1/2 122/1/2
f 122/1/2 120/1/2 123/1/2
f 123/1/2 120/1/2 124/1/2
f 124/1/2 120/1/2 125/1/2
f 125/1/2 120/1/2 126/1/2
f 127/8/2 128/8/2 129/8/2
f 129/8/2 128/8/2 130/8/2
f 131/5/2 132/5/2 133/5/2
f 133/5/2 132/5/2 134/5/2
f 134/5/2 132/5/2 135/5/2
f 136/8/2 137/8/2 138/8/2
f 138/8/2 137/8/2 139/8/2
f 140/8/2 141/8/2 142/8/2
f 142/8/2 141/8/2 143/8/2
f 143/8/2 141/8/2 144/8/2
f 144/8/2 141/8/2 145/8/2
f 146/8/2 147/8/2 148/8/2
f 148/8/2 147/8/2 149/8/2
f 150/9/2 151/9/2 158/9/2
f 151/1/2 152/1/2 159/1/2
f 158/9/2 151/9/2 159/9/2
f 152/1/2 153/1/2 159/1/2
f 158/1/2 159/1/2 160/1/2
f 159/1/2 153/1/2 160/1/2
f 153/6/2 154/6/2 161/6/2
f 160/1/2 153/1/2 161/1/2
f 154/6/2 155/6/2 161/6/2
f 158/1/2 160/1/2 162/1/2
f 160/6/2 161/6/2 163/6/2
f 162/1/2 160/1/2 163/1/2
f 161/6/2 155/6/2 164/6/2
f 163/6/2 161/6/2 164/6/2
f 155/7/2 156/7/2 164/7/2
f 156/8/2 157/8/2 165/8/2
f 164/7/2 156/7/2 165/7/2
f 165/8/2 157/8/2 166/8/2
f 167/10/2 168/10/2 170/10/2
f 168/7/2 169/7/2 171/7/2
f 170/10/2 168/10/2 171/10/2
f 171/7/2 169/7/2 172/7/2
f 172/7/2 169/7/2 173/7/2
f 172/8/2 173/8/2 174/8/2
f 174/8/2 173/8/2 175/8/2
f 176/1/2 177/1/2 178/1/2
f 178/1/2 177/1/2 179/1/2
f 182/10/3 181/10/3 180/10/3
f 183/10/3 181/10/3 182/10/3
f 186/1/3 185/1/3 184/1/3
f 187/1/3 186/1/3 184/1/3
f 188/1/3 187/1/3 184/1/3
f 189/1/3 187/1/3 188/1/3
f 194/10/3 191/10/3 190/10/3
f 195/10/3 191/10/3 194/10/3
f 196/10/3 194/10/3 190/10/3
f 196/1/3 195/1/3 194/1/3
f 197/1/3 195/1/3 196/1/3
f 198/1/3 193/1/3 192/1/3
f 199/1/3 193/1/3 198/1/3
f 200/10/3 197/10/3 196/10/3
f 200/10/3 196/10/3 190/10/3
f 201/10/3 197/10/3 200/10/3
f 203/1/3 193/1/3 199/1/3
f 204/1/3 201/1/3 200/1/3
f 204/10/3 200/10/3 190/10/3
f 205/1/3 201/1/3 204/1/3
f 206/10/3 204/10/3 190/10/3
f 206/10/3 205/10/3 204/10/3
f 207/10/3 205/10/3 206/10/3
f 208/1/3 203/1/3 202/1/3
f 209/1/3 193/1/3 203/1/3
f 209/1/3 203/1/3 208/1/3
f 214/10/3 211/10/3 210/10/3
f 214/7/3 212/7/3 211/7/3
f 215/7/3 212/7/3 214/7/3
f 216/10/3 214/10/3 210/10/3
f 216/2/3 215/2/3 214/2/3
f 217/7/3 212/7/3 215/7/3
f 217/2/3 215/2/3 216/2/3
f 218/10/3 216/10/3 210/10/3
f 219/7/3 217/7/3 216/7/3
f 219/10/3 216/10/3 218/10/3
f 220/7/3 217/7/3 219/7/3
f 221/8/3 213/8/3 212/8/3
f 221/7/3 217/7/3 220/7/3
f 221/7/3 212/7/3 217/7/3
f 222/8/3 213/8/3 221/8/3
f 223/8/3 220/8/3 219/8/3
f 223/8/3 219/8/3 218/8/3
f 224/8/3 220/8/3 223/8/3
f 225/8/3 220/8/3 224/8/3
f 226/10/3 224/10/3 223/10/3
f 227/10/3 224/10/3 226/10/3
f 232/7/3 229/7/3 228/7/3
f 232/7/3 230/7/3 229/7/3
f 233/7/3 230/7/3 232/7/3
f 234/2/3 233/2/3 232/2/3
f 235/7/3 230/7/3 233/7/3
f 235/2/3 233/2/3 234/2/3
f 236/7/3 235/7/3 234/7/3
f 237/8/3 231/8/3 230/8/3
f 237/7/3 235/7/3 236/7/3
f 237/7/3 230/7/3 235/7/3
f 238/8/3 231/8/3 237/8/3
f 242/1/3 241/1/3 240/1/3
f 243/1/3 241/1/3 242/1/3
f 244/1/3 242/1/3 240/1/3
f 244/7/3 243/7/3 242/7/3
f 245/7/3 243/7/3 244/7/3
f 247/9/3 240/9/3 239/9/3
f 248/9/3 240/9/3 247/9/3
f 248/5/3 247/5/3 246/5/3
f 249/1/3 244/1/3 240/1/3
f 249/9/3 240/9/3 248/9/3
f 250/1/3 244/1/3 249/1/3
f 251/10/3 245/10/3 244/10/3
f 251/1/3 244/1/3 250/1/3
f 252/10/3 245/10/3 251/10/3
f 253/5/3 248/5/3 246/5/3
f 254/5/3 248/5/3 253/5/3
f 255/5/3 248/5/3 254/5/3
f 256/3/3 249/3/3 248/3/3
f 256/5/3 248/5/3 255/5/3
f 257/4/3 255/4/3 254/4/3
f 258/4/3 255/4/3 257/4/3
f 259/5/3 258/5/3 257/5/3
f 260/5/3 258/5/3 259/5/3
f 262/4/3 260/4/3 259/4/3
f 263/4/3 260/4/3 262/4/3
f 264/3/3 249/3/3 256/3/3
f 265/5/3 263/5/3 262/5/3
f 265/5/3 264/5/3 263/5/3
f 265/3/3 249/3/3 264/3/3
f 265/5/3 262/5/3 261/5/3
f 266/1/3 250/1/3 249/1/3
f 266/3/3 249/3/3 265/3/3
f 267/1/3 250/1/3 266/1/3
f 270/5/3 265/5/3 261/5/3
f 271/9/3 266/9/3 265/9/3
f 271/5/3 265/5/3 270/5/3
f 272/10/3 269/10/3 268/10/3
f 272/1/3 267/1/3 266/1/3
f 272/1/3 268/1/3 267/1/3
f 273/10/3 269/10/3 272/10/3
f 274/1/3 272/1/3 266/1/3
f 274/7/3 273/7/3 272/7/3
f 275/7/3 273/7/3 274/7/3
f 276/9/3 266/9/3 271/9/3
f 277/1/3 274/1/3 266/1/3
f 277/9/3 266/9/3 276/9/3
f 277/1/3 275/1/3 274/1/3
f 278/1/3 275/1/3 277/1/3
f 281/1/3 280/1/3 279/1/3
f 282/1/3 280/1/3 281/1/3
f 284/8/3 282/8/3 281/8/3
f 285/8/3 282/8/3 284/8/3
f 287/8/3 284/8/3 283/8/3
f 287/8/3 285/8/3 284/8/3
f 288/8/3 285/8/3 287/8/3
f 288/8/3 287/8/3 286/8/3
f 289/8/3 285/8/3 288/8/3
f 290/8/3 288/8/3 286/8/3
f 294/8/3 290/8/3 286/8/3
f 294/8/3 291/8/3 290/8/3
f 295/8/3 291/8/3 294/8/3
f 296/8/3 293/8/3 292/8/3
f 297/8/3 293/8/3 296/8/3
f 298/8/3 294/8/3 286/8/3
f 300/8/3 298/8/3 286/8/3
f 300/8/3 299/8/3 298/8/3
f 301/8/3 299/8/3 300/8/3
f 302/8/3 299/8/3 301/8/3
f 303/8/3 299/8/3 302/8/3
f 304/8/3 299/8/3 303/8/3
f 305/8/3 304/8/3 303/8/3
f 306/8/3 304/8/3 305/8/3
f 307/1/3 306/1/3 305/1/3
f 308/1/3 306/1/3 307/1/3
f 311/8/3 310/8/3 309/8/3
f 312/8/3 310/8/3 311/8/3
f 314/8/3 310/8/3 312/8/3
f 315/8/3 314/8/3 313/8/3
f 316/8/3 310/8/3 314/8/3
f 316/8/3 314/8/3 315/8/3
f 317/8/4 318/8/4 319/8/4
f 319/8/4 318/8/4 320/8/4
f 320/8/4 318/8/4 321/8/4
f 320/8/4 321/8/4 322/8/4
f 322/8/4 321/8/4 323/8/4
f 322/1/4 323/1/4 324/1/4
f 324/1/4 323/1/4 325/1/4
f 326/8/4 327/8/4 328/8/4
f 328/8/4 327/8/4 329/8/4
f 329/8/4 327/8/4 331/8/4
f 330/8/4 331/8/4 332/8/4
f 331/8/4 327/8/4 333/8/4
f 332/8/4 331/8/4 333/8/4
f 334/1/4 335/1/4 336/1/4
f 336/1/4 335/1/4 337/1/4
f 336/8/4 337/8/4 342/8/4
f 342/8/4 337/8/4 343/8/4
f 338/7/4 339/7/4 344/7/4
f 342/8/4 343/8/4 346/8/4
f 341/8/4 342/8/4 346/8/4
f 344/7/4 339/7/4 347/7/4
f 347/7/4 339/7/4 348/7/4
f 348/7/4 339/7/4 349/7/4
f 339/8/4 340/8/4 350/8/4
f 349/7/4 339/7/4 350/7/4
f 350/8/4 340/8/4 351/8/4
f 348/7/4 349/7/4 352/7/4
f 345/8/4 346/8/4 355/8/4
f 346/8/4 343/8/4 356/8/4
f 355/8/4 346/8/4 356/8/4
f 348/7/4 352/7/4 357/7/4
f 352/7/4 353/7/4 357/7/4
f 357/7/4 353/7/4 358/7/4
f 353/8/4 354/8/4 359/8/4
f 358/7/4 353/7/4 359/7/4
f 359/8/4 354/8/4 360/8/4
f 361/8/4 362/8/4 363/8/4
f 363/8/4 362/8/4 364/8/4
f 369/8/5 366/8/5 365/8/5
f 370/8/5 366/8/5 369/8/5
f 371/8/5 368/8/5 367/8/5
f 372/8/5 368/8/5 371/8/5
f 375/8/5 374/8/5 373/8/5
f 376/8/5 374/8/5 375/8/5
f 379/8/5 378/8/5 377/8/5
f 380/8/5 378/8/5 379/8/5
f 381/8/5 379/8/5 377/8/5
f 382/8/5 378/8/5 380/8/5
f 383/8/5 381/8/5 377/8/5
f 383/8/5 382/8/5 381/8/5
f 384/8/5 378/8/5 382/8/5
f 384/8/5 382/8/5 383/8/5
f 389/8/5 388/8/5 387/8/5
f 390/8/5 388/8/5 389/8/5
f 391/8/5 386/8/5 385/8/5
f 392/8/5 386/8/5 391/8/5
f 397/5/5 394/5/5 393/5/5
f 398/5/5 394/5/5 397/5/5
f 399/5/5 396/5/5 395/5/5
f 400/5/5 396/5/5 399/5/5
f 407/8/5 405/8/5 404/8/5
f 408/1/5 406/1/5 405/1/5
f 408/8/5 405/8/5 407/8/5
f 409/1/5 406/1/5 408/1/5
f 410/1/5 402/1/5 401/1/5
f 411/8/5 403/8/5 402/8/5
f 411/1/5 402/1/5 410/1/5
f 412/8/5 403/8/5 411/8/5
f 417/4/5 414/4/5 413/4/5
f 418/5/5 415/5/5 414/5/5
f 418/4/5 414/4/5 417/4/5
f 419/4/5 416/4/5 415/4/5
f 419/5/5 415/5/5 418/5/5
f 420/4/5 416/4/5 419/4/5
f 421/5/5 418/5/5 417/5/5
f 421/5/5 419/5/5 418/5/5
f 421/5/5 420/5/5 419/5/5
f 422/5/5 420/5/5 421/5/5
f 429/9/5 424/9/5 423/9/5
f 430/9/5 424/9/5 429/9/5
f 431/3/5 426/3/5 425/3/5
f 432/3/5 426/3/5 431/3/5
f 433/9/5 428/9/5 427/9/5
f 434/9/5 428/9/5 433/9/5
f 435/1/5 430/1/5 429/1/5
f 436/1/5 430/1/5 435/1/5
f 437/1/5 432/1/5 431/1/5
f 438/1/5 432/1/5 437/1/5
f 439/1/5 434/1/5 433/1/5
f 440/1/5 434/1/5 439/1/5
f 444/6/5 442/6/5 441/6/5
f 445/6/5 442/6/5 444/6/5
f 446/7/5 444/7/5 443/7/5
f 446/7/5 445/7/5 444/7/5
f 447/7/5 445/7/5 446/7/5
f 448/8/5 447/8/5 446/8/5
f 449/8/5 447/8/5 448/8/5
f 452/10/5 451/10/5 450/10/5
f 453/10/5 451/10/5 452/10/5
f 454/1/5 453/1/5 452/1/5
f 455/1/5 453/1/5 454/1/5
f 458/1/5 457/1/5 456/1/5
f 459/1/5 457/1/5 458/1/5
f 460/1/5 457/1/5 459/1/5
f 461/1/5 457/1/5 460/1/5
f 462/1/5 457/1/5 461/1/5
f 463/1/5 457/1/5 462/1/5
f 466/10/5 465/10/5 464/10/5
f 467/10/5 465/10/5 466/10/5
f 472/10/5 469/10/5 468/10/5
f 473/10/5 469/10/5 472/10/5
f 474/10/5 471/10/5 470/10/5
f 475/10/5 471/10/5 474/10/5
f 476/7/5 473/7/5 472/7/5
f 477/7/5 473/7/5 476/7/5
f 478/7/5 473/7/5 477/7/5
f 479/7/5 473/7/5 478/7/5
f 480/7/5 475/7/5 474/7/5
f 481/7/5 475/7/5 480/7/5
f 482/7/5 475/7/5 481/7/5
f 483/7/5 475/7/5 482/7/5
f 484/7/5 476/7/5 472/7/5
f 485/7/5 475/7/5 483/7/5
f 486/7/5 484/7/5 472/7/5
f 487/7/5 484/7/5 486/7/5
f 488/7/5 475/7/5 485/7/5
f 489/7/5 475/7/5 488/7/5
f 490/4/6 491/4/6 494/4/6
f 491/5/6 492/5/6 495/5/6
f 494/4/6 491/4/6 495/4/6
f 492/4/6 493/4/6 496/4/6
f 495/5/6 492/5/6 496/5/6
f 496/4/6 493/4/6 497/4/6
f 494/5/6 495/5/6 498/5/6
f 495/5/6 496/5/6 498/5/6
f 496/5/6 497/5/6 498/5/6
f 498/5/6 497/5/6 499/5/6
f 501/8/6 502/8/6 506/8/6
f 503/8/6 504/8/6 507/8/6
f 507/8/6 504/8/6 508/8/6
f 504/1/6 505/1/6 509/1/6
f 508/8/6 504/8/6 509/8/6
f 509/1/6 505/1/6 510/1/6
f 500/1/6 501/1/6 511/1/6
f 501/8/6 506/8/6 512/8/6
f 511/1/6 501/1/6 512/1/6
f 512/8/6 506/8/6 513/8/6
f 514/1/6 515/1/6 518/1/6
f 518/1/6 515/1/6 519/1/6
f 516/1/6 517/1/6 520/1/6
f 520/1/6 517/1/6 521/1/6
f 522/10/6 523/10/6 524/10/6
f 524/10/6 523/10/6 525/10/6
f 526/1/6 527/1/6 528/1/6
f 528/1/6 527/1/6 529/1/6
f 530/7/6 531/7/6 534/7/6
f 531/1/6 532/1/6 535/1/6
f 534/7/6 531/7/6 535/7/6
f 532/7/6 533/7/6 536/7/6
f 535/1/6 532/1/6 536/1/6
f 536/7/6 533/7/6 537/7/6
f 534/8/6 535/8/6 538/8/6
f 535/8/6 536/8/6 538/8/6
f 536/8/6 537/8/6 538/8/6
f 538/8/6 537/8/6 539/8/6
f 540/10/6 541/10/6 542/10/6
f 542/10/6 541/10/6 543/10/6
f 543/10/6 541/10/6 544/10/6
f 544/10/6 541/10/6 545/10/6
f 546/8/6 547/8/6 548/8/6
f 546/8/6 548/8/6 549/8/6
f 549/8/6 548/8/6 550/8/6
f 549/7/6 550/7/6 551/7/6
f 551/7/6 550/7/6 552/7/6
f 553/8/6 554/8/6 557/8/6
f 557/8/6 554/8/6 558/8/6
f 555/8/6 556/8/6 559/8/6
f 559/8/6 556/8/6 560/8/6
